# Blender v2.79 (sub 0) OBJ File: ''
# www.blender.org
mtllib car1.mtl
o CAR_03
v -0.158741 0.020684 0.097906
v -0.169059 0.086163 0.097906
v -0.169059 0.086163 -0.070860
v -0.158741 0.020684 -0.070860
v -0.120251 0.162799 0.097906
v -0.120251 0.162799 -0.070860
v 0.038522 0.047626 -0.070860
v 0.038522 0.020684 -0.070860
v 0.097883 0.047626 -0.070860
v 0.097883 0.020684 -0.070860
v 0.235312 0.048330 -0.070860
v 0.235312 0.020684 -0.070860
v 0.038522 0.163336 -0.070860
v 0.097883 0.093513 -0.070860
v 0.235312 0.055461 -0.070860
v 0.235312 0.048330 0.097906
v 0.235312 0.020684 0.097906
v 0.235312 0.055461 0.097906
v 0.097883 0.047626 0.097906
v 0.097883 0.020684 0.097906
v 0.038522 0.047626 0.097906
v 0.038522 0.020684 0.097906
v 0.097883 0.093513 0.097906
v 0.038522 0.163336 0.097906
v 0.164128 0.021370 -0.062679
v 0.187963 0.021370 -0.062679
v 0.186526 0.029074 -0.062679
v 0.187963 0.021370 -0.076172
v 0.186526 0.029074 -0.076172
v 0.164128 0.021370 -0.076172
v 0.182387 0.035848 -0.062679
v 0.182387 0.035848 -0.076172
v 0.176046 0.040877 -0.062679
v 0.176046 0.040877 -0.076172
v 0.168267 0.043552 -0.062679
v 0.168267 0.043552 -0.076172
v 0.159989 0.043552 -0.062679
v 0.159989 0.043552 -0.076172
v 0.152211 0.040877 -0.062679
v 0.152211 0.040877 -0.076172
v 0.145870 0.035848 -0.062679
v 0.145870 0.035848 -0.076172
v 0.141731 0.029074 -0.062679
v 0.141731 0.029074 -0.076172
v 0.140293 0.021370 -0.062679
v 0.140293 0.021370 -0.076172
v 0.141731 0.013666 -0.062679
v 0.141731 0.013666 -0.076172
v 0.145870 0.006891 -0.062679
v 0.145870 0.006891 -0.076172
v 0.152211 0.001863 -0.062679
v 0.152211 0.001863 -0.076172
v 0.159989 -0.000813 -0.062679
v 0.159989 -0.000813 -0.076172
v 0.168267 -0.000813 -0.062679
v 0.168267 -0.000813 -0.076172
v 0.176046 0.001863 -0.062679
v 0.176046 0.001863 -0.076172
v 0.182387 0.006891 -0.062679
v 0.182387 0.006891 -0.076172
v 0.186526 0.013666 -0.062679
v 0.186526 0.013666 -0.076172
v 0.164128 0.021370 0.103127
v 0.187963 0.021370 0.103127
v 0.186526 0.029074 0.103127
v 0.187963 0.021370 0.089634
v 0.186526 0.029074 0.089634
v 0.164128 0.021370 0.089634
v 0.182387 0.035848 0.103127
v 0.182387 0.035848 0.089634
v 0.176046 0.040877 0.103127
v 0.176046 0.040877 0.089634
v 0.168267 0.043552 0.103127
v 0.168267 0.043552 0.089634
v 0.159989 0.043552 0.103127
v 0.159989 0.043552 0.089634
v 0.152211 0.040877 0.103127
v 0.152211 0.040877 0.089634
v 0.145870 0.035848 0.103127
v 0.145870 0.035848 0.089634
v 0.141731 0.029074 0.103127
v 0.141731 0.029074 0.089634
v 0.140293 0.021370 0.103127
v 0.140293 0.021370 0.089634
v 0.141731 0.013666 0.103127
v 0.141731 0.013666 0.089634
v 0.145870 0.006891 0.103127
v 0.145870 0.006891 0.089634
v 0.152211 0.001863 0.103127
v 0.152211 0.001863 0.089634
v 0.159989 -0.000813 0.103127
v 0.159989 -0.000813 0.089634
v 0.168267 -0.000813 0.103127
v 0.168267 -0.000813 0.089634
v 0.176046 0.001863 0.103127
v 0.176046 0.001863 0.089634
v 0.182387 0.006891 0.103127
v 0.182387 0.006891 0.089634
v 0.186526 0.013666 0.103127
v 0.186526 0.013666 0.089634
v -0.103788 0.021370 -0.062679
v -0.079953 0.021370 -0.062679
v -0.081390 0.029074 -0.062679
v -0.079953 0.021370 -0.076172
v -0.081390 0.029074 -0.076172
v -0.103788 0.021370 -0.076172
v -0.085529 0.035848 -0.062679
v -0.085529 0.035848 -0.076172
v -0.091870 0.040877 -0.062679
v -0.091870 0.040877 -0.076172
v -0.099649 0.043552 -0.062679
v -0.099649 0.043552 -0.076172
v -0.107927 0.043552 -0.062679
v -0.107927 0.043552 -0.076172
v -0.115705 0.040877 -0.062679
v -0.115705 0.040877 -0.076172
v -0.122046 0.035848 -0.062679
v -0.122046 0.035848 -0.076172
v -0.126185 0.029074 -0.062679
v -0.126185 0.029074 -0.076172
v -0.127623 0.021370 -0.062679
v -0.127623 0.021370 -0.076172
v -0.126185 0.013666 -0.062679
v -0.126185 0.013666 -0.076172
v -0.122046 0.006891 -0.062679
v -0.122046 0.006891 -0.076172
v -0.115705 0.001863 -0.062679
v -0.115705 0.001863 -0.076172
v -0.107927 -0.000813 -0.062679
v -0.107927 -0.000813 -0.076172
v -0.099649 -0.000813 -0.062679
v -0.099649 -0.000813 -0.076172
v -0.091870 0.001863 -0.062679
v -0.091870 0.001863 -0.076172
v -0.085529 0.006891 -0.062679
v -0.085529 0.006891 -0.076172
v -0.081390 0.013666 -0.062679
v -0.081390 0.013666 -0.076172
v -0.103788 0.021370 0.103127
v -0.079953 0.021370 0.103127
v -0.081390 0.029074 0.103127
v -0.079953 0.021370 0.089634
v -0.081390 0.029074 0.089634
v -0.103788 0.021370 0.089634
v -0.085529 0.035848 0.103127
v -0.085529 0.035848 0.089634
v -0.091870 0.040877 0.103127
v -0.091870 0.040877 0.089634
v -0.099649 0.043552 0.103127
v -0.099649 0.043552 0.089634
v -0.107927 0.043552 0.103127
v -0.107927 0.043552 0.089634
v -0.115705 0.040877 0.103127
v -0.115705 0.040877 0.089634
v -0.122046 0.035848 0.103127
v -0.122046 0.035848 0.089634
v -0.126185 0.029074 0.103127
v -0.126185 0.029074 0.089634
v -0.127623 0.021370 0.103127
v -0.127623 0.021370 0.089634
v -0.126185 0.013666 0.103127
v -0.126185 0.013666 0.089634
v -0.122046 0.006891 0.103127
v -0.122046 0.006891 0.089634
v -0.115705 0.001863 0.103127
v -0.115705 0.001863 0.089634
v -0.107927 -0.000813 0.103127
v -0.107927 -0.000813 0.089634
v -0.099649 -0.000813 0.103127
v -0.099649 -0.000813 0.089634
v -0.091870 0.001863 0.103127
v -0.091870 0.001863 0.089634
v -0.085529 0.006891 0.103127
v -0.085529 0.006891 0.089634
v -0.081390 0.013666 0.103127
v -0.081390 0.013666 0.089634
vt 0.929503 -0.530972
vt 0.821501 -0.530972
vt 0.821501 -0.277791
vt 0.929503 -0.277791
vt 0.673463 -0.530972
vt 0.673463 -0.277791
vt 0.027499 -0.761385
vt 0.009525 -0.663153
vt 0.371136 -0.720967
vt 0.371136 -0.761385
vt 0.474544 -0.720967
vt 0.474544 -0.761385
vt 0.713949 -0.719911
vt 0.713949 -0.761385
vt 0.094551 -0.548184
vt 0.371136 -0.547378
vt 0.474544 -0.652127
vt 0.713949 -0.709213
vt 0.715025 -0.008203
vt 0.763184 -0.008203
vt 0.763184 -0.261385
vt 0.715025 -0.261385
vt 0.775607 -0.008203
vt 0.775607 -0.261385
vt 0.009525 -0.991797
vt 0.009525 -0.950323
vt 0.248930 -0.951379
vt 0.248930 -0.991797
vt 0.352338 -0.951379
vt 0.352338 -0.991797
vt 0.713949 -0.893565
vt 0.695975 -0.991797
vt 0.009525 -0.939625
vt 0.248930 -0.882539
vt 0.352338 -0.777791
vt 0.628923 -0.778596
vt 0.654413 -0.530972
vt 0.397303 -0.530972
vt 0.397303 -0.277791
vt 0.654413 -0.277791
vt 0.256595 -0.530972
vt 0.256595 -0.277791
vt 0.009525 -0.530972
vt 0.009525 -0.277791
vt 0.695975 -0.261385
vt 0.456570 -0.261385
vt 0.456570 -0.008203
vt 0.695975 -0.008203
vt 0.353162 -0.261385
vt 0.353162 -0.008203
vt 0.009525 -0.261385
vt 0.009525 -0.008203
vt 0.876612 -0.645144
vt 0.835091 -0.645144
vt 0.837595 -0.633586
vt 0.928707 -0.595459
vt 0.928707 -0.575217
vt 0.941460 -0.575217
vt 0.941460 -0.595459
vt 0.877699 -0.207407
vt 0.836178 -0.207407
vt 0.875195 -0.195849
vt 0.844805 -0.623423
vt 0.951776 -0.575217
vt 0.951776 -0.595459
vt 0.867985 -0.185686
vt 0.855852 -0.615879
vt 0.937183 -0.678422
vt 0.937183 -0.658180
vt 0.949535 -0.658180
vt 0.949535 -0.678422
vt 0.856938 -0.178142
vt 0.869402 -0.611865
vt 0.963673 -0.658180
vt 0.963673 -0.678422
vt 0.843388 -0.174128
vt 0.883822 -0.611865
vt 0.977891 -0.658180
vt 0.977891 -0.678422
vt 0.828968 -0.174128
vt 0.897372 -0.615879
vt 0.990475 -0.658180
vt 0.990475 -0.678422
vt 0.815418 -0.178142
vt 0.908419 -0.623423
vt 0.732999 -0.798033
vt 0.732999 -0.777791
vt 0.743599 -0.777791
vt 0.743599 -0.798033
vt 0.804371 -0.185686
vt 0.915629 -0.633586
vt 0.756504 -0.777791
vt 0.756504 -0.798033
vt 0.797161 -0.195849
vt 0.918133 -0.645144
vt 0.770156 -0.777791
vt 0.770156 -0.798033
vt 0.794657 -0.207407
vt 0.915629 -0.656701
vt 0.782909 -0.777791
vt 0.782909 -0.798033
vt 0.797161 -0.218964
vt 0.908419 -0.666865
vt 0.793225 -0.777791
vt 0.793225 -0.798033
vt 0.804371 -0.229128
vt 0.897372 -0.674408
vt 0.805341 -0.834681
vt 0.805341 -0.814438
vt 0.817694 -0.814438
vt 0.817694 -0.834681
vt 0.815418 -0.236671
vt 0.883822 -0.678422
vt 0.831831 -0.814438
vt 0.831831 -0.834681
vt 0.828968 -0.240685
vt 0.869402 -0.678422
vt 0.846050 -0.814438
vt 0.846050 -0.834681
vt 0.843388 -0.240685
vt 0.855852 -0.674408
vt 0.858633 -0.814438
vt 0.858633 -0.834681
vt 0.856938 -0.236671
vt 0.844805 -0.666865
vt 0.891550 -0.595459
vt 0.891550 -0.575217
vt 0.902151 -0.575217
vt 0.902151 -0.595459
vt 0.867985 -0.229128
vt 0.837595 -0.656701
vt 0.915055 -0.575217
vt 0.915055 -0.595459
vt 0.875195 -0.218964
vt 0.876612 -0.728106
vt 0.835091 -0.728106
vt 0.837595 -0.716549
vt 0.849431 -0.798033
vt 0.849431 -0.777791
vt 0.862184 -0.777791
vt 0.862184 -0.798033
vt 0.979791 -0.041481
vt 0.938270 -0.041481
vt 0.977287 -0.029924
vt 0.844805 -0.706385
vt 0.872500 -0.777791
vt 0.872500 -0.798033
vt 0.970077 -0.019760
vt 0.855852 -0.698842
vt 0.937183 -0.641774
vt 0.937183 -0.621532
vt 0.949535 -0.621532
vt 0.949535 -0.641774
vt 0.959030 -0.012217
vt 0.869402 -0.694828
vt 0.963673 -0.621532
vt 0.963673 -0.641774
vt 0.945480 -0.008203
vt 0.883822 -0.694828
vt 0.977891 -0.621532
vt 0.977891 -0.641774
vt 0.931060 -0.008203
vt 0.897372 -0.698842
vt 0.990475 -0.621532
vt 0.990475 -0.641774
vt 0.917509 -0.012217
vt 0.908419 -0.706385
vt 0.732999 -0.595459
vt 0.732999 -0.575217
vt 0.743599 -0.575217
vt 0.743599 -0.595459
vt 0.906463 -0.019760
vt 0.915629 -0.716549
vt 0.756504 -0.575217
vt 0.756504 -0.595459
vt 0.899253 -0.029924
vt 0.918133 -0.728106
vt 0.770156 -0.575217
vt 0.770156 -0.595459
vt 0.896749 -0.041481
vt 0.915629 -0.739664
vt 0.782909 -0.575217
vt 0.782909 -0.595459
vt 0.899253 -0.053039
vt 0.908419 -0.749827
vt 0.793225 -0.575217
vt 0.793225 -0.595459
vt 0.906463 -0.063202
vt 0.897372 -0.757371
vt 0.896749 -0.240685
vt 0.896749 -0.220443
vt 0.909101 -0.220443
vt 0.909101 -0.240685
vt 0.917509 -0.070746
vt 0.883822 -0.761385
vt 0.923239 -0.220443
vt 0.923239 -0.240685
vt 0.931060 -0.074760
vt 0.869402 -0.761385
vt 0.937457 -0.220443
vt 0.937457 -0.240685
vt 0.945480 -0.074760
vt 0.855852 -0.757371
vt 0.950041 -0.220443
vt 0.950041 -0.240685
vt 0.959030 -0.070746
vt 0.844805 -0.749827
vt 0.812275 -0.798033
vt 0.812275 -0.777791
vt 0.822875 -0.777791
vt 0.822875 -0.798033
vt 0.970077 -0.063202
vt 0.837595 -0.739664
vt 0.835779 -0.777791
vt 0.835779 -0.798033
vt 0.977287 -0.053039
vt 0.836178 -0.041481
vt 0.794657 -0.041481
vt 0.797161 -0.029924
vt 0.933906 -0.111408
vt 0.933906 -0.091166
vt 0.946659 -0.091166
vt 0.946659 -0.111408
vt 0.877699 -0.124444
vt 0.836178 -0.124444
vt 0.875195 -0.112887
vt 0.804371 -0.019760
vt 0.956974 -0.091166
vt 0.956974 -0.111408
vt 0.867985 -0.102723
vt 0.815418 -0.012217
vt 0.937183 -0.715070
vt 0.937183 -0.694828
vt 0.949535 -0.694828
vt 0.949535 -0.715070
vt 0.856938 -0.095179
vt 0.828968 -0.008203
vt 0.963673 -0.694828
vt 0.963673 -0.715070
vt 0.843388 -0.091166
vt 0.843388 -0.008203
vt 0.977891 -0.694828
vt 0.977891 -0.715070
vt 0.828968 -0.091166
vt 0.856938 -0.012217
vt 0.990475 -0.694828
vt 0.990475 -0.715070
vt 0.815418 -0.095179
vt 0.867985 -0.019760
vt 0.896749 -0.148056
vt 0.896749 -0.127813
vt 0.907349 -0.127813
vt 0.907349 -0.148056
vt 0.804371 -0.102723
vt 0.875195 -0.029924
vt 0.920254 -0.127813
vt 0.920254 -0.148056
vt 0.797161 -0.112887
vt 0.877699 -0.041481
vt 0.933906 -0.127813
vt 0.933906 -0.148056
vt 0.794657 -0.124444
vt 0.875195 -0.053039
vt 0.946659 -0.127813
vt 0.946659 -0.148056
vt 0.797161 -0.136002
vt 0.867985 -0.063202
vt 0.956974 -0.127813
vt 0.956974 -0.148056
vt 0.804371 -0.146165
vt 0.856938 -0.070746
vt 0.877684 -0.834681
vt 0.877684 -0.814438
vt 0.890036 -0.814438
vt 0.890036 -0.834681
vt 0.815418 -0.153709
vt 0.843388 -0.074760
vt 0.904173 -0.814438
vt 0.904173 -0.834681
vt 0.828968 -0.157723
vt 0.828968 -0.074760
vt 0.918392 -0.814438
vt 0.918392 -0.834681
vt 0.843388 -0.157723
vt 0.815418 -0.070746
vt 0.930975 -0.814438
vt 0.930975 -0.834681
vt 0.856938 -0.153709
vt 0.804371 -0.063202
vt 0.896749 -0.111408
vt 0.896749 -0.091166
vt 0.907349 -0.091166
vt 0.907349 -0.111408
vt 0.867985 -0.146165
vt 0.797161 -0.053039
vt 0.920254 -0.091166
vt 0.920254 -0.111408
vt 0.875195 -0.136002
vt 0.774520 -0.645144
vt 0.732999 -0.645144
vt 0.735503 -0.633586
vt 0.928707 -0.798033
vt 0.928707 -0.777791
vt 0.941460 -0.777791
vt 0.941460 -0.798033
vt 0.816041 -0.728106
vt 0.774520 -0.728106
vt 0.813537 -0.716549
vt 0.742713 -0.623423
vt 0.951776 -0.777791
vt 0.951776 -0.798033
vt 0.806327 -0.706385
vt 0.753760 -0.615879
vt 0.732999 -0.834681
vt 0.732999 -0.814438
vt 0.745351 -0.814438
vt 0.745351 -0.834681
vt 0.795281 -0.698842
vt 0.767310 -0.611865
vt 0.759489 -0.814438
vt 0.759489 -0.834681
vt 0.781730 -0.694828
vt 0.781730 -0.611865
vt 0.773707 -0.814438
vt 0.773707 -0.834681
vt 0.767310 -0.694828
vt 0.795281 -0.615879
vt 0.786291 -0.814438
vt 0.786291 -0.834681
vt 0.753760 -0.698842
vt 0.806327 -0.623423
vt 0.812275 -0.595459
vt 0.812275 -0.575217
vt 0.822875 -0.575217
vt 0.822875 -0.595459
vt 0.742713 -0.706385
vt 0.813537 -0.633586
vt 0.835779 -0.575217
vt 0.835779 -0.595459
vt 0.735503 -0.716549
vt 0.816041 -0.645144
vt 0.849431 -0.575217
vt 0.849431 -0.595459
vt 0.732999 -0.728106
vt 0.813537 -0.656701
vt 0.862184 -0.575217
vt 0.862184 -0.595459
vt 0.735503 -0.739664
vt 0.806327 -0.666865
vt 0.872500 -0.575217
vt 0.872500 -0.595459
vt 0.742713 -0.749827
vt 0.795281 -0.674408
vt 0.896749 -0.204037
vt 0.896749 -0.183795
vt 0.909101 -0.183795
vt 0.909101 -0.204037
vt 0.753760 -0.757371
vt 0.781730 -0.678422
vt 0.923239 -0.183795
vt 0.923239 -0.204037
vt 0.767310 -0.761385
vt 0.767310 -0.678422
vt 0.937457 -0.183795
vt 0.937457 -0.204037
vt 0.781730 -0.761385
vt 0.753760 -0.674408
vt 0.950041 -0.183795
vt 0.950041 -0.204037
vt 0.795281 -0.757371
vt 0.742713 -0.666865
vt 0.891550 -0.798033
vt 0.891550 -0.777791
vt 0.902151 -0.777791
vt 0.902151 -0.798033
vt 0.806327 -0.749827
vt 0.735503 -0.656701
vt 0.915055 -0.777791
vt 0.915055 -0.798033
vt 0.813537 -0.739664
vn -0.5265 -0.6159 0.5860
vn -0.7559 0.1575 0.6355
vn -0.7559 0.1575 -0.6355
vn -0.5265 -0.6159 -0.5860
vn -0.3811 0.6917 0.6134
vn -0.3811 0.6917 -0.6134
vn -0.0000 0.0000 -1.0000
vn -0.0000 -0.7071 -0.7071
vn 0.7071 0.0000 -0.7071
vn 0.5774 -0.5774 -0.5774
vn 0.3269 0.7102 -0.6235
vn 0.3370 0.5279 -0.7796
vn 0.6409 0.4876 -0.5929
vn 0.7071 0.0000 0.7071
vn 0.5774 -0.5774 0.5774
vn 0.6409 0.4876 0.5929
vn 0.0000 0.0000 1.0000
vn 0.0000 -0.7071 0.7071
vn 0.3370 0.5279 0.7796
vn 0.3269 0.7102 0.6235
vn 0.7441 -0.0000 0.6681
vn 0.6943 0.2664 0.6686
vn 0.7441 0.0000 -0.6681
vn 0.6943 0.2664 -0.6686
vn 0.5561 0.4921 0.6697
vn 0.5561 0.4921 -0.6697
vn 0.3560 0.6504 0.6710
vn 0.3560 0.6504 -0.6710
vn 0.1221 0.7306 0.6718
vn 0.1221 0.7306 -0.6718
vn -0.1221 0.7306 0.6718
vn -0.1221 0.7306 -0.6718
vn -0.3560 0.6504 0.6710
vn -0.3560 0.6504 -0.6710
vn -0.5561 0.4921 0.6697
vn -0.5561 0.4921 -0.6697
vn -0.6943 0.2664 0.6686
vn -0.6943 0.2664 -0.6686
vn -0.7441 -0.0000 0.6681
vn -0.7441 0.0000 -0.6681
vn -0.6943 -0.2664 0.6686
vn -0.6943 -0.2664 -0.6686
vn -0.5561 -0.4921 0.6697
vn -0.5561 -0.4921 -0.6697
vn -0.3560 -0.6504 0.6710
vn -0.3560 -0.6504 -0.6710
vn -0.1221 -0.7306 0.6718
vn -0.1221 -0.7306 -0.6718
vn 0.1221 -0.7306 0.6718
vn 0.1221 -0.7306 -0.6718
vn 0.3560 -0.6504 0.6710
vn 0.3560 -0.6504 -0.6710
vn 0.5561 -0.4921 0.6697
vn 0.5561 -0.4921 -0.6697
vn 0.6943 -0.2664 0.6686
vn 0.6943 -0.2664 -0.6686
vn -0.6943 0.2665 0.6686
vn -0.6943 0.2665 -0.6686
vn -0.6943 -0.2665 0.6686
vn -0.6943 -0.2665 -0.6686
usemtl CAR_02
s 1
f 1/1/1 2/2/2 3/3/3 4/4/4
f 2/2/2 5/5/5 6/6/6 3/3/3
f 4/7/4 3/8/3 7/9/7 8/10/8
f 8/10/8 7/9/7 9/11/7 10/12/8
f 10/12/8 9/11/7 11/13/9 12/14/10
f 3/8/3 6/15/6 13/16/11 7/9/7
f 7/9/7 13/16/11 14/17/12 9/11/7
f 9/11/7 14/17/12 15/18/13 11/13/9
f 12/19/10 11/20/9 16/21/14 17/22/15
f 11/20/9 15/23/13 18/24/16 16/21/14
f 17/25/15 16/26/14 19/27/17 20/28/18
f 20/28/18 19/27/17 21/29/17 22/30/18
f 22/30/18 21/29/17 2/31/2 1/32/1
f 16/26/14 18/33/16 23/34/19 19/27/17
f 19/27/17 23/34/19 24/35/20 21/29/17
f 21/29/17 24/35/20 5/36/5 2/31/2
f 5/37/5 24/38/20 13/39/11 6/40/6
f 24/38/20 23/41/19 14/42/12 13/39/11
f 23/41/19 18/43/16 15/44/13 14/42/12
f 17/45/15 20/46/18 10/47/8 12/48/10
f 20/46/18 22/49/18 8/50/8 10/47/8
f 22/49/18 1/51/1 4/52/4 8/50/8
f 25/53/17 26/54/21 27/55/22
f 26/56/21 28/57/23 29/58/24 27/59/22
f 28/60/23 30/61/7 29/62/24
f 25/53/17 27/55/22 31/63/25
f 27/59/22 29/58/24 32/64/26 31/65/25
f 29/62/24 30/61/7 32/66/26
f 25/53/17 31/63/25 33/67/27
f 31/68/25 32/69/26 34/70/28 33/71/27
f 32/66/26 30/61/7 34/72/28
f 25/53/17 33/67/27 35/73/29
f 33/71/27 34/70/28 36/74/30 35/75/29
f 34/72/28 30/61/7 36/76/30
f 25/53/17 35/73/29 37/77/31
f 35/75/29 36/74/30 38/78/32 37/79/31
f 36/76/30 30/61/7 38/80/32
f 25/53/17 37/77/31 39/81/33
f 37/79/31 38/78/32 40/82/34 39/83/33
f 38/80/32 30/61/7 40/84/34
f 25/53/17 39/81/33 41/85/35
f 39/86/33 40/87/34 42/88/36 41/89/35
f 40/84/34 30/61/7 42/90/36
f 25/53/17 41/85/35 43/91/37
f 41/89/35 42/88/36 44/92/38 43/93/37
f 42/90/36 30/61/7 44/94/38
f 25/53/17 43/91/37 45/95/39
f 43/93/37 44/92/38 46/96/40 45/97/39
f 44/94/38 30/61/7 46/98/40
f 25/53/17 45/95/39 47/99/41
f 45/97/39 46/96/40 48/100/42 47/101/41
f 46/98/40 30/61/7 48/102/42
f 25/53/17 47/99/41 49/103/43
f 47/101/41 48/100/42 50/104/44 49/105/43
f 48/102/42 30/61/7 50/106/44
f 25/53/17 49/103/43 51/107/45
f 49/108/43 50/109/44 52/110/46 51/111/45
f 50/106/44 30/61/7 52/112/46
f 25/53/17 51/107/45 53/113/47
f 51/111/45 52/110/46 54/114/48 53/115/47
f 52/112/46 30/61/7 54/116/48
f 25/53/17 53/113/47 55/117/49
f 53/115/47 54/114/48 56/118/50 55/119/49
f 54/116/48 30/61/7 56/120/50
f 25/53/17 55/117/49 57/121/51
f 55/119/49 56/118/50 58/122/52 57/123/51
f 56/120/50 30/61/7 58/124/52
f 25/53/17 57/121/51 59/125/53
f 57/126/51 58/127/52 60/128/54 59/129/53
f 58/124/52 30/61/7 60/130/54
f 25/53/17 59/125/53 61/131/55
f 59/129/53 60/128/54 62/132/56 61/133/55
f 60/130/54 30/61/7 62/134/56
f 25/53/17 61/131/55 26/54/21
f 61/133/55 62/132/56 28/57/23 26/56/21
f 62/134/56 30/61/7 28/60/23
f 63/135/17 64/136/21 65/137/22
f 64/138/21 66/139/23 67/140/24 65/141/22
f 66/142/23 68/143/7 67/144/24
f 63/135/17 65/137/22 69/145/25
f 65/141/22 67/140/24 70/146/26 69/147/25
f 67/144/24 68/143/7 70/148/26
f 63/135/17 69/145/25 71/149/27
f 69/150/25 70/151/26 72/152/28 71/153/27
f 70/148/26 68/143/7 72/154/28
f 63/135/17 71/149/27 73/155/29
f 71/153/27 72/152/28 74/156/30 73/157/29
f 72/154/28 68/143/7 74/158/30
f 63/135/17 73/155/29 75/159/31
f 73/157/29 74/156/30 76/160/32 75/161/31
f 74/158/30 68/143/7 76/162/32
f 63/135/17 75/159/31 77/163/33
f 75/161/31 76/160/32 78/164/34 77/165/33
f 76/162/32 68/143/7 78/166/34
f 63/135/17 77/163/33 79/167/35
f 77/168/33 78/169/34 80/170/36 79/171/35
f 78/166/34 68/143/7 80/172/36
f 63/135/17 79/167/35 81/173/57
f 79/171/35 80/170/36 82/174/58 81/175/57
f 80/172/36 68/143/7 82/176/58
f 63/135/17 81/173/57 83/177/39
f 81/175/57 82/174/58 84/178/40 83/179/39
f 82/176/58 68/143/7 84/180/40
f 63/135/17 83/177/39 85/181/59
f 83/179/39 84/178/40 86/182/60 85/183/59
f 84/180/40 68/143/7 86/184/60
f 63/135/17 85/181/59 87/185/43
f 85/183/59 86/182/60 88/186/44 87/187/43
f 86/184/60 68/143/7 88/188/44
f 63/135/17 87/185/43 89/189/45
f 87/190/43 88/191/44 90/192/46 89/193/45
f 88/188/44 68/143/7 90/194/46
f 63/135/17 89/189/45 91/195/47
f 89/193/45 90/192/46 92/196/48 91/197/47
f 90/194/46 68/143/7 92/198/48
f 63/135/17 91/195/47 93/199/49
f 91/197/47 92/196/48 94/200/50 93/201/49
f 92/198/48 68/143/7 94/202/50
f 63/135/17 93/199/49 95/203/51
f 93/201/49 94/200/50 96/204/52 95/205/51
f 94/202/50 68/143/7 96/206/52
f 63/135/17 95/203/51 97/207/53
f 95/208/51 96/209/52 98/210/54 97/211/53
f 96/206/52 68/143/7 98/212/54
f 63/135/17 97/207/53 99/213/55
f 97/211/53 98/210/54 100/214/56 99/215/55
f 98/212/54 68/143/7 100/216/56
f 63/135/17 99/213/55 64/136/21
f 99/215/55 100/214/56 66/139/23 64/138/21
f 100/216/56 68/143/7 66/142/23
f 101/217/17 102/218/21 103/219/22
f 102/220/21 104/221/23 105/222/24 103/223/22
f 104/224/23 106/225/7 105/226/24
f 101/217/17 103/219/22 107/227/25
f 103/223/22 105/222/24 108/228/26 107/229/25
f 105/226/24 106/225/7 108/230/26
f 101/217/17 107/227/25 109/231/27
f 107/232/25 108/233/26 110/234/28 109/235/27
f 108/230/26 106/225/7 110/236/28
f 101/217/17 109/231/27 111/237/29
f 109/235/27 110/234/28 112/238/30 111/239/29
f 110/236/28 106/225/7 112/240/30
f 101/217/17 111/237/29 113/241/31
f 111/239/29 112/238/30 114/242/32 113/243/31
f 112/240/30 106/225/7 114/244/32
f 101/217/17 113/241/31 115/245/33
f 113/243/31 114/242/32 116/246/34 115/247/33
f 114/244/32 106/225/7 116/248/34
f 101/217/17 115/245/33 117/249/35
f 115/250/33 116/251/34 118/252/36 117/253/35
f 116/248/34 106/225/7 118/254/36
f 101/217/17 117/249/35 119/255/37
f 117/253/35 118/252/36 120/256/38 119/257/37
f 118/254/36 106/225/7 120/258/38
f 101/217/17 119/255/37 121/259/39
f 119/257/37 120/256/38 122/260/40 121/261/39
f 120/258/38 106/225/7 122/262/40
f 101/217/17 121/259/39 123/263/41
f 121/261/39 122/260/40 124/264/42 123/265/41
f 122/262/40 106/225/7 124/266/42
f 101/217/17 123/263/41 125/267/43
f 123/265/41 124/264/42 126/268/44 125/269/43
f 124/266/42 106/225/7 126/270/44
f 101/217/17 125/267/43 127/271/45
f 125/272/43 126/273/44 128/274/46 127/275/45
f 126/270/44 106/225/7 128/276/46
f 101/217/17 127/271/45 129/277/47
f 127/275/45 128/274/46 130/278/48 129/279/47
f 128/276/46 106/225/7 130/280/48
f 101/217/17 129/277/47 131/281/49
f 129/279/47 130/278/48 132/282/50 131/283/49
f 130/280/48 106/225/7 132/284/50
f 101/217/17 131/281/49 133/285/51
f 131/283/49 132/282/50 134/286/52 133/287/51
f 132/284/50 106/225/7 134/288/52
f 101/217/17 133/285/51 135/289/53
f 133/290/51 134/291/52 136/292/54 135/293/53
f 134/288/52 106/225/7 136/294/54
f 101/217/17 135/289/53 137/295/55
f 135/293/53 136/292/54 138/296/56 137/297/55
f 136/294/54 106/225/7 138/298/56
f 101/217/17 137/295/55 102/218/21
f 137/297/55 138/296/56 104/221/23 102/220/21
f 138/298/56 106/225/7 104/224/23
f 139/299/17 140/300/21 141/301/22
f 140/302/21 142/303/23 143/304/24 141/305/22
f 142/306/23 144/307/7 143/308/24
f 139/299/17 141/301/22 145/309/25
f 141/305/22 143/304/24 146/310/26 145/311/25
f 143/308/24 144/307/7 146/312/26
f 139/299/17 145/309/25 147/313/27
f 145/314/25 146/315/26 148/316/28 147/317/27
f 146/312/26 144/307/7 148/318/28
f 139/299/17 147/313/27 149/319/29
f 147/317/27 148/316/28 150/320/30 149/321/29
f 148/318/28 144/307/7 150/322/30
f 139/299/17 149/319/29 151/323/31
f 149/321/29 150/320/30 152/324/32 151/325/31
f 150/322/30 144/307/7 152/326/32
f 139/299/17 151/323/31 153/327/33
f 151/325/31 152/324/32 154/328/34 153/329/33
f 152/326/32 144/307/7 154/330/34
f 139/299/17 153/327/33 155/331/35
f 153/332/33 154/333/34 156/334/36 155/335/35
f 154/330/34 144/307/7 156/336/36
f 139/299/17 155/331/35 157/337/37
f 155/335/35 156/334/36 158/338/38 157/339/37
f 156/336/36 144/307/7 158/340/38
f 139/299/17 157/337/37 159/341/39
f 157/339/37 158/338/38 160/342/40 159/343/39
f 158/340/38 144/307/7 160/344/40
f 139/299/17 159/341/39 161/345/41
f 159/343/39 160/342/40 162/346/42 161/347/41
f 160/344/40 144/307/7 162/348/42
f 139/299/17 161/345/41 163/349/43
f 161/347/41 162/346/42 164/350/44 163/351/43
f 162/348/42 144/307/7 164/352/44
f 139/299/17 163/349/43 165/353/45
f 163/354/43 164/355/44 166/356/46 165/357/45
f 164/352/44 144/307/7 166/358/46
f 139/299/17 165/353/45 167/359/47
f 165/357/45 166/356/46 168/360/48 167/361/47
f 166/358/46 144/307/7 168/362/48
f 139/299/17 167/359/47 169/363/49
f 167/361/47 168/360/48 170/364/50 169/365/49
f 168/362/48 144/307/7 170/366/50
f 139/299/17 169/363/49 171/367/51
f 169/365/49 170/364/50 172/368/52 171/369/51
f 170/366/50 144/307/7 172/370/52
f 139/299/17 171/367/51 173/371/53
f 171/372/51 172/373/52 174/374/54 173/375/53
f 172/370/52 144/307/7 174/376/54
f 139/299/17 173/371/53 175/377/55
f 173/375/53 174/374/54 176/378/56 175/379/55
f 174/376/54 144/307/7 176/380/56
f 139/299/17 175/377/55 140/300/21
f 175/379/55 176/378/56 142/303/23 140/302/21
f 176/380/56 144/307/7 142/306/23
